<svg width="48" height="48" viewBox="0 0 48 48" fill="none" xmlns="http://www.w3.org/2000/svg">
<g clip-path="url(#clip0_244_392)">
<path d="M39.1111 0H8.88889C3.97969 0 0 3.97969 0 8.88889V39.1111C0 44.0203 3.97969 48 8.88889 48H39.1111C44.0203 48 48 44.0203 48 39.1111V8.88889C48 3.97969 44.0203 0 39.1111 0Z" fill="white"/>
<path d="M14.1378 30V16.9091H19.3026C20.2955 16.9091 21.1413 17.0987 21.8402 17.478C22.5391 17.853 23.0717 18.375 23.4382 19.044C23.8089 19.7088 23.9943 20.4759 23.9943 21.3452C23.9943 22.2145 23.8068 22.9815 23.4318 23.6463C23.0568 24.3111 22.5135 24.8288 21.8018 25.1996C21.0945 25.5703 20.2379 25.7557 19.2322 25.7557H15.9403V23.5376H18.7848C19.3175 23.5376 19.7564 23.446 20.1016 23.2628C20.451 23.0753 20.7109 22.8175 20.8814 22.4893C21.0561 22.157 21.1435 21.7756 21.1435 21.3452C21.1435 20.9105 21.0561 20.5312 20.8814 20.2074C20.7109 19.8793 20.451 19.6257 20.1016 19.4467C19.7521 19.2635 19.3089 19.1719 18.772 19.1719H16.9055V30H14.1378ZM25.7921 30V16.9091H30.9569C31.9455 16.9091 32.7892 17.0859 33.4881 17.4396C34.1912 17.7891 34.726 18.2855 35.0925 18.929C35.4632 19.5682 35.6486 20.3203 35.6486 21.1854C35.6486 22.0547 35.4611 22.8026 35.0861 23.429C34.7111 24.0511 34.1678 24.5284 33.4561 24.8608C32.7488 25.1932 31.8922 25.3594 30.8865 25.3594H27.4284V23.1349H30.4391C30.9675 23.1349 31.4064 23.0625 31.7559 22.9176C32.1053 22.7727 32.3652 22.5554 32.5357 22.2656C32.7104 21.9759 32.7978 21.6158 32.7978 21.1854C32.7978 20.7507 32.7104 20.3842 32.5357 20.0859C32.3652 19.7876 32.1032 19.5618 31.7495 19.4084C31.4 19.2507 30.959 19.1719 30.4263 19.1719H28.5598V30H25.7921ZM32.8617 24.0426L36.1152 30H33.0598L29.8766 24.0426H32.8617Z" fill="#29A2FF"/>
</g>
<defs>
<clipPath id="clip0_244_392">
<rect width="48" height="48" fill="white"/>
</clipPath>
</defs>
</svg>
