<svg width="60" height="36" viewBox="0 0 60 36" fill="none" xmlns="http://www.w3.org/2000/svg">
<g clip-path="url(#clip0_321_359)">
<path d="M41.2813 25.6206C41.1572 25.3123 30.8475 4.49804 30.6807 4.21345C30.1377 2.88934 29.1874 1.72333 27.8764 0.944679C24.6726 -0.968365 20.5573 0.126497 18.68 3.39132C17.3922 5.62847 17.4931 8.30831 18.7188 10.3834C18.8429 10.6917 28.7103 30.6127 28.8771 30.9012C29.0013 31.2095 29.1486 31.5059 29.3193 31.7945C29.8623 33.1186 30.8126 34.2846 32.1236 35.0633C35.3275 36.9763 39.4428 35.8814 41.3201 32.6166C42.6078 30.3795 42.507 27.6996 41.2813 25.6245V25.6206Z" fill="#4CAF50"/>
<path d="M29.3775 11.5336C30.5062 10.3083 31.1966 8.66008 31.1966 6.8498C31.2005 3.06719 28.1906 0 24.4786 0C22.1941 0 20.181 1.16206 18.9631 2.93281C18.742 3.17391 2.0053 24.1937 1.81912 24.4625C0.690413 25.6877 0 27.336 0 29.1462C0 32.9289 3.00989 35.996 6.72183 35.996C9.0064 35.996 11.0195 34.834 12.2335 33.0632C12.4546 32.8221 29.1913 11.8024 29.3775 11.5336Z" fill="#087F23"/>
<path d="M58.1809 11.5336C59.3096 10.3083 60 8.66008 60 6.8498C60 3.06719 56.9901 0 53.2782 0C50.9936 0 48.9805 1.16206 47.7665 2.93281C47.5454 3.17391 30.8087 24.1937 30.6225 24.4625C29.4938 25.6877 28.8034 27.336 28.8034 29.1462C28.8034 32.9289 31.8133 35.996 35.5252 35.996C37.8098 35.996 39.8229 34.834 41.0369 33.0632C41.258 32.8221 57.9947 11.8024 58.1809 11.5336Z" fill="#087F23"/>
</g>
<defs>
<clipPath id="clip0_321_359">
<rect width="60" height="36" fill="white"/>
</clipPath>
</defs>
</svg>
